<mxfile host="app.diagrams.net" agent="Mozilla/5.0 (Windows NT 10.0; Win64; x64) AppleWebKit/537.36 (KHTML, like Gecko) Chrome/129.0.0.0 Safari/537.36 Edg/129.0.0.0" version="24.7.17">
  <diagram name="Страница — 1" id="th6WARTs6PV4EXHEDdjc">
    <mxGraphModel dx="1666" dy="795" grid="1" gridSize="10" guides="1" tooltips="1" connect="1" arrows="1" fold="1" page="1" pageScale="1" pageWidth="827" pageHeight="1169" math="0" shadow="0">
      <root>
        <mxCell id="0" />
        <mxCell id="1" parent="0" />
        <mxCell id="QF57DYZPfEIiyQPpDeCr-2" value="Пользователь" style="shape=umlActor;verticalLabelPosition=bottom;verticalAlign=top;html=1;outlineConnect=0;" vertex="1" parent="1">
          <mxGeometry x="50" y="370" width="30" height="60" as="geometry" />
        </mxCell>
        <mxCell id="QF57DYZPfEIiyQPpDeCr-3" value="Сотрудник" style="shape=umlActor;verticalLabelPosition=bottom;verticalAlign=top;html=1;outlineConnect=0;" vertex="1" parent="1">
          <mxGeometry x="750" y="370" width="30" height="60" as="geometry" />
        </mxCell>
        <mxCell id="QF57DYZPfEIiyQPpDeCr-4" value="Зарегистрироваться&lt;br&gt;как пользователь" style="ellipse;whiteSpace=wrap;html=1;" vertex="1" parent="1">
          <mxGeometry x="190" y="220" width="130" height="40" as="geometry" />
        </mxCell>
        <mxCell id="QF57DYZPfEIiyQPpDeCr-5" value="Авторизоваться как пользователь" style="ellipse;whiteSpace=wrap;html=1;" vertex="1" parent="1">
          <mxGeometry x="250" y="270" width="130" height="40" as="geometry" />
        </mxCell>
        <mxCell id="QF57DYZPfEIiyQPpDeCr-6" value="Создать заказ" style="ellipse;whiteSpace=wrap;html=1;" vertex="1" parent="1">
          <mxGeometry x="284" y="370" width="130" height="40" as="geometry" />
        </mxCell>
        <mxCell id="QF57DYZPfEIiyQPpDeCr-7" value="" style="endArrow=none;html=1;rounded=0;entryX=0;entryY=1;entryDx=0;entryDy=0;" edge="1" parent="1" target="QF57DYZPfEIiyQPpDeCr-4">
          <mxGeometry width="50" height="50" relative="1" as="geometry">
            <mxPoint x="90" y="380" as="sourcePoint" />
            <mxPoint x="170" y="320" as="targetPoint" />
          </mxGeometry>
        </mxCell>
        <mxCell id="QF57DYZPfEIiyQPpDeCr-8" value="Создать логин" style="ellipse;whiteSpace=wrap;html=1;" vertex="1" parent="1">
          <mxGeometry x="180" y="160" width="130" height="40" as="geometry" />
        </mxCell>
        <mxCell id="QF57DYZPfEIiyQPpDeCr-9" value="Указать адрес" style="ellipse;whiteSpace=wrap;html=1;" vertex="1" parent="1">
          <mxGeometry x="345" y="420" width="130" height="40" as="geometry" />
        </mxCell>
        <mxCell id="QF57DYZPfEIiyQPpDeCr-10" value="Просмотреть меню" style="ellipse;whiteSpace=wrap;html=1;" vertex="1" parent="1">
          <mxGeometry x="270" y="320" width="130" height="40" as="geometry" />
        </mxCell>
        <mxCell id="QF57DYZPfEIiyQPpDeCr-11" value="Указать блюда" style="ellipse;whiteSpace=wrap;html=1;" vertex="1" parent="1">
          <mxGeometry x="215" y="420" width="130" height="40" as="geometry" />
        </mxCell>
        <mxCell id="QF57DYZPfEIiyQPpDeCr-12" value="" style="endArrow=none;html=1;rounded=0;exitX=1;exitY=0.3333333333333333;exitDx=0;exitDy=0;exitPerimeter=0;entryX=0;entryY=1;entryDx=0;entryDy=0;" edge="1" parent="1" target="QF57DYZPfEIiyQPpDeCr-5">
          <mxGeometry width="50" height="50" relative="1" as="geometry">
            <mxPoint x="90" y="400" as="sourcePoint" />
            <mxPoint x="265" y="300" as="targetPoint" />
          </mxGeometry>
        </mxCell>
        <mxCell id="QF57DYZPfEIiyQPpDeCr-13" value="" style="endArrow=none;html=1;rounded=0;entryX=0;entryY=0.5;entryDx=0;entryDy=0;" edge="1" parent="1" target="QF57DYZPfEIiyQPpDeCr-10">
          <mxGeometry width="50" height="50" relative="1" as="geometry">
            <mxPoint x="90" y="410" as="sourcePoint" />
            <mxPoint x="325" y="350" as="targetPoint" />
          </mxGeometry>
        </mxCell>
        <mxCell id="QF57DYZPfEIiyQPpDeCr-14" value="" style="endArrow=none;dashed=1;html=1;dashPattern=1 3;strokeWidth=2;rounded=0;entryX=0.5;entryY=1;entryDx=0;entryDy=0;exitX=0.5;exitY=0;exitDx=0;exitDy=0;" edge="1" parent="1" source="QF57DYZPfEIiyQPpDeCr-4" target="QF57DYZPfEIiyQPpDeCr-8">
          <mxGeometry width="50" height="50" relative="1" as="geometry">
            <mxPoint x="400" y="430" as="sourcePoint" />
            <mxPoint x="450" y="380" as="targetPoint" />
          </mxGeometry>
        </mxCell>
        <mxCell id="QF57DYZPfEIiyQPpDeCr-15" value="include" style="edgeLabel;html=1;align=center;verticalAlign=middle;resizable=0;points=[];" vertex="1" connectable="0" parent="QF57DYZPfEIiyQPpDeCr-14">
          <mxGeometry x="-0.1167" y="-2" relative="1" as="geometry">
            <mxPoint x="22" as="offset" />
          </mxGeometry>
        </mxCell>
        <mxCell id="QF57DYZPfEIiyQPpDeCr-16" value="" style="endArrow=none;html=1;rounded=0;entryX=0;entryY=0.5;entryDx=0;entryDy=0;" edge="1" parent="1" target="QF57DYZPfEIiyQPpDeCr-6">
          <mxGeometry width="50" height="50" relative="1" as="geometry">
            <mxPoint x="100" y="420" as="sourcePoint" />
            <mxPoint x="280" y="390" as="targetPoint" />
          </mxGeometry>
        </mxCell>
        <mxCell id="QF57DYZPfEIiyQPpDeCr-17" value="" style="endArrow=none;dashed=1;html=1;dashPattern=1 3;strokeWidth=2;rounded=0;entryX=0.5;entryY=0;entryDx=0;entryDy=0;exitX=0.336;exitY=1.071;exitDx=0;exitDy=0;exitPerimeter=0;" edge="1" parent="1" source="QF57DYZPfEIiyQPpDeCr-6" target="QF57DYZPfEIiyQPpDeCr-11">
          <mxGeometry width="50" height="50" relative="1" as="geometry">
            <mxPoint x="265" y="260" as="sourcePoint" />
            <mxPoint x="245" y="240" as="targetPoint" />
          </mxGeometry>
        </mxCell>
        <mxCell id="QF57DYZPfEIiyQPpDeCr-18" value="include" style="edgeLabel;html=1;align=center;verticalAlign=middle;resizable=0;points=[];" vertex="1" connectable="0" parent="QF57DYZPfEIiyQPpDeCr-17">
          <mxGeometry x="-0.1167" y="-2" relative="1" as="geometry">
            <mxPoint x="22" as="offset" />
          </mxGeometry>
        </mxCell>
        <mxCell id="QF57DYZPfEIiyQPpDeCr-19" value="" style="endArrow=none;dashed=1;html=1;dashPattern=1 3;strokeWidth=2;rounded=0;entryX=0.5;entryY=0;entryDx=0;entryDy=0;exitX=0.5;exitY=1;exitDx=0;exitDy=0;" edge="1" parent="1" source="QF57DYZPfEIiyQPpDeCr-6" target="QF57DYZPfEIiyQPpDeCr-9">
          <mxGeometry width="50" height="50" relative="1" as="geometry">
            <mxPoint x="275" y="270" as="sourcePoint" />
            <mxPoint x="255" y="250" as="targetPoint" />
          </mxGeometry>
        </mxCell>
        <mxCell id="QF57DYZPfEIiyQPpDeCr-20" value="include" style="edgeLabel;html=1;align=center;verticalAlign=middle;resizable=0;points=[];" vertex="1" connectable="0" parent="QF57DYZPfEIiyQPpDeCr-19">
          <mxGeometry x="-0.1167" y="-2" relative="1" as="geometry">
            <mxPoint x="22" as="offset" />
          </mxGeometry>
        </mxCell>
        <mxCell id="QF57DYZPfEIiyQPpDeCr-21" value="" style="endArrow=none;html=1;rounded=0;entryX=0;entryY=0.5;entryDx=0;entryDy=0;" edge="1" parent="1" target="QF57DYZPfEIiyQPpDeCr-41">
          <mxGeometry width="50" height="50" relative="1" as="geometry">
            <mxPoint x="110" y="430" as="sourcePoint" />
            <mxPoint x="349" y="510" as="targetPoint" />
          </mxGeometry>
        </mxCell>
        <mxCell id="QF57DYZPfEIiyQPpDeCr-22" value="" style="endArrow=none;html=1;rounded=0;entryX=0;entryY=0.5;entryDx=0;entryDy=0;" edge="1" parent="1" target="QF57DYZPfEIiyQPpDeCr-40">
          <mxGeometry width="50" height="50" relative="1" as="geometry">
            <mxPoint x="110" y="450" as="sourcePoint" />
            <mxPoint x="344.9999999999998" y="550" as="targetPoint" />
          </mxGeometry>
        </mxCell>
        <mxCell id="QF57DYZPfEIiyQPpDeCr-23" value="" style="endArrow=none;html=1;rounded=0;exitX=1;exitY=0.5;exitDx=0;exitDy=0;" edge="1" parent="1" source="QF57DYZPfEIiyQPpDeCr-41">
          <mxGeometry width="50" height="50" relative="1" as="geometry">
            <mxPoint x="479" y="510" as="sourcePoint" />
            <mxPoint x="730" y="430" as="targetPoint" />
          </mxGeometry>
        </mxCell>
        <mxCell id="QF57DYZPfEIiyQPpDeCr-24" value="" style="endArrow=none;html=1;rounded=0;exitX=1;exitY=0.5;exitDx=0;exitDy=0;" edge="1" parent="1" source="QF57DYZPfEIiyQPpDeCr-40">
          <mxGeometry width="50" height="50" relative="1" as="geometry">
            <mxPoint x="474.9999999999998" y="550" as="sourcePoint" />
            <mxPoint x="730" y="450" as="targetPoint" />
          </mxGeometry>
        </mxCell>
        <mxCell id="QF57DYZPfEIiyQPpDeCr-25" value="Собрать заказ" style="ellipse;whiteSpace=wrap;html=1;" vertex="1" parent="1">
          <mxGeometry x="460" y="370" width="130" height="40" as="geometry" />
        </mxCell>
        <mxCell id="QF57DYZPfEIiyQPpDeCr-26" value="Авторизоваться как сотрудник" style="ellipse;whiteSpace=wrap;html=1;" vertex="1" parent="1">
          <mxGeometry x="500" y="180" width="130" height="40" as="geometry" />
        </mxCell>
        <mxCell id="QF57DYZPfEIiyQPpDeCr-27" value="Подтвердить готовность заказа" style="ellipse;whiteSpace=wrap;html=1;" vertex="1" parent="1">
          <mxGeometry x="490" y="420" width="130" height="40" as="geometry" />
        </mxCell>
        <mxCell id="QF57DYZPfEIiyQPpDeCr-28" value="Оценить обслуживание" style="ellipse;whiteSpace=wrap;html=1;" vertex="1" parent="1">
          <mxGeometry x="270" y="610" width="130" height="40" as="geometry" />
        </mxCell>
        <mxCell id="QF57DYZPfEIiyQPpDeCr-29" value="" style="endArrow=none;html=1;rounded=0;entryX=0;entryY=0.5;entryDx=0;entryDy=0;" edge="1" parent="1" target="QF57DYZPfEIiyQPpDeCr-28">
          <mxGeometry width="50" height="50" relative="1" as="geometry">
            <mxPoint x="90" y="460" as="sourcePoint" />
            <mxPoint x="294" y="400" as="targetPoint" />
          </mxGeometry>
        </mxCell>
        <mxCell id="QF57DYZPfEIiyQPpDeCr-30" value="" style="endArrow=none;html=1;rounded=0;exitX=1;exitY=0.5;exitDx=0;exitDy=0;" edge="1" parent="1" source="QF57DYZPfEIiyQPpDeCr-27">
          <mxGeometry width="50" height="50" relative="1" as="geometry">
            <mxPoint x="485" y="580" as="sourcePoint" />
            <mxPoint x="730" y="410" as="targetPoint" />
          </mxGeometry>
        </mxCell>
        <mxCell id="QF57DYZPfEIiyQPpDeCr-31" value="" style="endArrow=none;html=1;rounded=0;exitX=1;exitY=0.5;exitDx=0;exitDy=0;" edge="1" parent="1" source="QF57DYZPfEIiyQPpDeCr-25">
          <mxGeometry width="50" height="50" relative="1" as="geometry">
            <mxPoint x="630" y="450" as="sourcePoint" />
            <mxPoint x="730" y="400" as="targetPoint" />
          </mxGeometry>
        </mxCell>
        <mxCell id="QF57DYZPfEIiyQPpDeCr-32" value="" style="endArrow=none;html=1;rounded=0;exitX=1;exitY=1;exitDx=0;exitDy=0;" edge="1" parent="1" source="QF57DYZPfEIiyQPpDeCr-26">
          <mxGeometry width="50" height="50" relative="1" as="geometry">
            <mxPoint x="600" y="400" as="sourcePoint" />
            <mxPoint x="730" y="380" as="targetPoint" />
          </mxGeometry>
        </mxCell>
        <mxCell id="QF57DYZPfEIiyQPpDeCr-33" value="Просмотреть список созданных заказов" style="ellipse;whiteSpace=wrap;html=1;" vertex="1" parent="1">
          <mxGeometry x="460" y="240" width="130" height="40" as="geometry" />
        </mxCell>
        <mxCell id="QF57DYZPfEIiyQPpDeCr-34" value="" style="endArrow=none;html=1;rounded=0;exitX=1;exitY=1;exitDx=0;exitDy=0;" edge="1" parent="1" source="QF57DYZPfEIiyQPpDeCr-33">
          <mxGeometry width="50" height="50" relative="1" as="geometry">
            <mxPoint x="610" y="250" as="sourcePoint" />
            <mxPoint x="730" y="390" as="targetPoint" />
          </mxGeometry>
        </mxCell>
        <mxCell id="QF57DYZPfEIiyQPpDeCr-35" value="Указать собранные блюда" style="ellipse;whiteSpace=wrap;html=1;" vertex="1" parent="1">
          <mxGeometry x="430" y="300" width="130" height="40" as="geometry" />
        </mxCell>
        <mxCell id="QF57DYZPfEIiyQPpDeCr-36" value="" style="endArrow=none;dashed=1;html=1;dashPattern=1 3;strokeWidth=2;rounded=0;entryX=0.5;entryY=1;entryDx=0;entryDy=0;exitX=0.5;exitY=0;exitDx=0;exitDy=0;" edge="1" parent="1" source="QF57DYZPfEIiyQPpDeCr-25" target="QF57DYZPfEIiyQPpDeCr-35">
          <mxGeometry width="50" height="50" relative="1" as="geometry">
            <mxPoint x="265" y="230" as="sourcePoint" />
            <mxPoint x="255" y="210" as="targetPoint" />
          </mxGeometry>
        </mxCell>
        <mxCell id="QF57DYZPfEIiyQPpDeCr-37" value="include" style="edgeLabel;html=1;align=center;verticalAlign=middle;resizable=0;points=[];" vertex="1" connectable="0" parent="QF57DYZPfEIiyQPpDeCr-36">
          <mxGeometry x="-0.1167" y="-2" relative="1" as="geometry">
            <mxPoint x="22" as="offset" />
          </mxGeometry>
        </mxCell>
        <mxCell id="QF57DYZPfEIiyQPpDeCr-38" value="Просмотреть оценку заказа" style="ellipse;whiteSpace=wrap;html=1;" vertex="1" parent="1">
          <mxGeometry x="450" y="610" width="130" height="40" as="geometry" />
        </mxCell>
        <mxCell id="QF57DYZPfEIiyQPpDeCr-39" value="" style="endArrow=none;html=1;rounded=0;exitX=1;exitY=0;exitDx=0;exitDy=0;" edge="1" parent="1" source="QF57DYZPfEIiyQPpDeCr-38">
          <mxGeometry width="50" height="50" relative="1" as="geometry">
            <mxPoint x="485" y="570" as="sourcePoint" />
            <mxPoint x="740" y="460" as="targetPoint" />
          </mxGeometry>
        </mxCell>
        <mxCell id="QF57DYZPfEIiyQPpDeCr-40" value="Просмотреть детали прошлых заказов" style="ellipse;whiteSpace=wrap;html=1;" vertex="1" parent="1">
          <mxGeometry x="345" y="540" width="130" height="40" as="geometry" />
        </mxCell>
        <mxCell id="QF57DYZPfEIiyQPpDeCr-41" value="Просмотреть детали заказа" style="ellipse;whiteSpace=wrap;html=1;" vertex="1" parent="1">
          <mxGeometry x="349" y="490" width="130" height="40" as="geometry" />
        </mxCell>
      </root>
    </mxGraphModel>
  </diagram>
</mxfile>
